<svg xmlns="http://www.w3.org/2000/svg" width="25.995" height="32" viewBox="0 0 25.995 32">
  <g id="apple-black_1" data-name="apple-black 1" transform="translate(-0.003)">
    <path id="Vector" d="M21.71,17A7.07,7.07,0,0,0,26,23.475a17.532,17.532,0,0,1-2.209,4.551c-1.331,1.949-2.712,3.892-4.887,3.932-2.138.039-2.825-1.271-5.269-1.271S10.423,31.918,8.4,32c-2.1.08-3.7-2.108-5.041-4.05C.617,23.975-1.478,16.721,1.335,11.825A7.813,7.813,0,0,1,7.941,7.814C10,7.775,11.949,9.2,13.21,9.2s3.625-1.72,6.111-1.467a7.452,7.452,0,0,1,5.839,3.174A7.238,7.238,0,0,0,21.71,17ZM17.693,5.109A7.059,7.059,0,0,0,19.353,0a7.151,7.151,0,0,0-4.7,2.425,6.707,6.707,0,0,0-1.694,4.95A5.916,5.916,0,0,0,17.693,5.109Z" transform="translate(0.003 0)"/>
  </g>
</svg>
