<svg xmlns="http://www.w3.org/2000/svg" width="25.985" height="26.907" viewBox="0 0 25.985 26.907">
  <g id="google-icon_1" data-name="google-icon 1" transform="translate(-0.001)">
    <path id="Vector" d="M12.727,2.75A11.693,11.693,0,0,0,12.447,0H0V4.993H7.306A6.59,6.59,0,0,1,4.6,9.358l-.025.167,3.936,3.094.273.028A13.253,13.253,0,0,0,12.727,2.75Z" transform="translate(13.259 11.002)" fill="#4285f4"/>
    <path id="Vector-2" data-name="Vector" d="M11.844,10.793a12.53,12.53,0,0,0,8.779-3.259L16.439,4.245a7.765,7.765,0,0,1-4.6,1.345A7.994,7.994,0,0,1,4.3,0L4.146.013.054,3.227,0,3.378A13.23,13.23,0,0,0,11.844,10.793Z" transform="translate(1.415 16.114)" fill="#34a853"/>
    <path id="Vector-3" data-name="Vector" d="M5.715,8.766A8.393,8.393,0,0,1,5.274,6.1,8.821,8.821,0,0,1,5.7,3.444l-.007-.178L1.55,0,1.414.065a13.6,13.6,0,0,0,0,12.078Z" transform="translate(0.001 7.349)" fill="#fbbc05"/>
    <path id="Vector-4" data-name="Vector" d="M11.844,5.2a7.292,7.292,0,0,1,5.126,2L20.711,3.5A12.637,12.637,0,0,0,11.844,0,13.23,13.23,0,0,0,0,7.414l4.287,3.378A8.027,8.027,0,0,1,11.844,5.2Z" transform="translate(1.415 0)" fill="#eb4335"/>
  </g>
</svg>
